<svg xmlns="http://www.w3.org/2000/svg" xmlns:xlink="http://www.w3.org/1999/xlink" width="1080" zoomAndPan="magnify" viewBox="0 0 810 809.999993" height="1080" preserveAspectRatio="xMidYMid meet" version="1.0"><defs><g/><clipPath id="bc1f3fca32"><path d="M 540 1.382812 L 810 1.382812 L 810 810 L 540 810 Z M 540 1.382812 " clip-rule="nonzero"/></clipPath><clipPath id="fa099f4448"><path d="M 270 1.382812 L 540 1.382812 L 540 810 L 270 810 Z M 270 1.382812 " clip-rule="nonzero"/></clipPath><clipPath id="7f7fd0dbb2"><path d="M 0 1.382812 L 270 1.382812 L 270 810 L 0 810 Z M 0 1.382812 " clip-rule="nonzero"/></clipPath></defs><g clip-path="url(#bc1f3fca32)"><path fill="#ffffff" d="M 675 1.382812 C 749.558594 1.382812 810 62.375 810 137.609375 L 810 675.15625 C 810 750.390625 749.558594 811.382812 675 811.382812 C 600.441406 811.382812 540 750.390625 540 675.15625 L 540 137.609375 C 540 62.375 600.441406 1.382812 675 1.382812 Z M 675 1.382812 " fill-opacity="1" fill-rule="nonzero"/></g><g clip-path="url(#fa099f4448)"><path fill="#ffffff" d="M 405 1.382812 C 479.558594 1.382812 540 62.375 540 137.609375 L 540 675.15625 C 540 750.390625 479.558594 811.382812 405 811.382812 C 330.445312 811.382812 270 750.390625 270 675.15625 L 270 137.609375 C 270 62.375 330.445312 1.382812 405 1.382812 Z M 405 1.382812 " fill-opacity="1" fill-rule="nonzero"/></g><g clip-path="url(#7f7fd0dbb2)"><path fill="#ffffff" d="M 135 1.382812 C 209.558594 1.382812 270 62.375 270 137.609375 L 270 675.15625 C 270 750.390625 209.558594 811.382812 135 811.382812 C 60.441406 811.382812 0 750.390625 0 675.15625 L 0 137.609375 C 0 62.375 60.441406 1.382812 135 1.382812 Z M 135 1.382812 " fill-opacity="1" fill-rule="nonzero"/></g><g fill="#000000" fill-opacity="1"><g transform="translate(109.980512, 581.047925)"><g><path d="M 43 0 L 43 -330.890625 L 108.40625 -330.890625 L 108.40625 -195.765625 L 115.65625 -195.765625 L 226.09375 -330.890625 L 293.09375 -330.890625 L 293.09375 -325.234375 L 171.328125 -174.71875 L 305.765625 -5.65625 L 305.765625 0 L 231.765625 0 L 115.65625 -142.8125 L 108.40625 -142.8125 L 108.40625 0 Z M 43 0 "/></g></g><g transform="translate(415.748825, 581.047925)"><g><path d="M 146.65625 4.75 C 123.71875 4.75 103.3125 1.921875 85.4375 -3.734375 C 67.5625 -9.390625 52.660156 -16.816406 40.734375 -26.015625 C 28.816406 -35.222656 19.691406 -45.335938 13.359375 -56.359375 L 49.34375 -100.265625 L 55 -100.265625 C 64.957031 -85.472656 77.59375 -73.703125 92.90625 -64.953125 C 108.21875 -56.203125 126.132812 -51.828125 146.65625 -51.828125 C 164.15625 -51.828125 177.359375 -55.523438 186.265625 -62.921875 C 195.171875 -70.316406 199.625 -80.5 199.625 -93.46875 C 199.625 -101.3125 198.1875 -107.875 195.3125 -113.15625 C 192.445312 -118.4375 187.695312 -122.960938 181.0625 -126.734375 C 174.425781 -130.515625 165.445312 -133.757812 154.125 -136.46875 L 111.578125 -146.203125 C 81.859375 -152.992188 59.71875 -164.269531 45.15625 -180.03125 C 30.59375 -195.800781 23.3125 -216.285156 23.3125 -241.484375 C 23.3125 -260.191406 27.988281 -276.640625 37.34375 -290.828125 C 46.695312 -305.015625 60.3125 -316.03125 78.1875 -323.875 C 96.070312 -331.71875 117.460938 -335.640625 142.359375 -335.640625 C 167.859375 -335.640625 189.695312 -332.28125 207.875 -325.5625 C 226.0625 -318.851562 241.414062 -308.554688 253.9375 -294.671875 L 221.578125 -250.3125 L 215.921875 -250.3125 C 206.554688 -260.125 195.835938 -267.476562 183.765625 -272.375 C 171.703125 -277.28125 157.898438 -279.734375 142.359375 -279.734375 C 124.398438 -279.734375 110.742188 -276.566406 101.390625 -270.234375 C 92.035156 -263.898438 87.359375 -255.148438 87.359375 -243.984375 C 87.359375 -233.566406 90.640625 -225.265625 97.203125 -219.078125 C 103.765625 -212.890625 115.117188 -208.0625 131.265625 -204.59375 L 174.71875 -195.546875 C 206.863281 -188.753906 230.175781 -177.25 244.65625 -161.03125 C 259.144531 -144.8125 266.390625 -123.648438 266.390625 -97.546875 C 266.390625 -76.878906 261.9375 -58.882812 253.03125 -43.5625 C 244.125 -28.25 230.691406 -16.367188 212.734375 -7.921875 C 194.785156 0.523438 172.757812 4.75 146.65625 4.75 Z M 146.65625 4.75 "/></g></g></g></svg>